<control>


default_path=//NDK/samples/kicks/kd14bop/snare_off/opn\


<global>




ampeg_attack=0.001


ampeg_release=0.15


ampeg_dynamic=1




volume=0




<group> //Begin Group for entire instrument




<region>
sample=kd14bop_opn_001.wav
lokey=12
hikey=12
pitch_keycenter=12
lovel=0
hivel=1
volume=12


<region>
sample=kd14bop_opn_002.wav
lokey=12
hikey=12
pitch_keycenter=12
lovel=2
hivel=3
volume=12


<region>
sample=kd14bop_opn_003.wav
lokey=12
hikey=12
pitch_keycenter=12
lovel=4
hivel=5
volume=12


<region>
sample=kd14bop_opn_004.wav
lokey=12
hikey=12
pitch_keycenter=12
lovel=6
hivel=8
volume=11


<region>
sample=kd14bop_opn_005.wav
lokey=12
hikey=12
pitch_keycenter=12
lovel=9
hivel=10
volume=11


<region>
sample=kd14bop_opn_006x.wav
lokey=12
hikey=12
pitch_keycenter=12
lovel=11
hivel=12
volume=11


<region>
sample=kd14bop_opn_007.wav
lokey=12
hikey=12
pitch_keycenter=12
lovel=13
hivel=15
volume=11


<region>
sample=kd14bop_opn_008.wav
lokey=12
hikey=12
pitch_keycenter=12
lovel=16
hivel=17
volume=10


<region>
sample=kd14bop_opn_009.wav
lokey=12
hikey=12
pitch_keycenter=12
lovel=18
hivel=19
volume=10


<region>
sample=kd14bop_opn_010.wav
lokey=12
hikey=12
pitch_keycenter=12
lovel=20
hivel=22
volume=10


<region>
sample=kd14bop_opn_011.wav
lokey=12
hikey=12
pitch_keycenter=12
lovel=23
hivel=24
volume=10


<region>
sample=kd14bop_opn_012.wav
lokey=12
hikey=12
pitch_keycenter=12
lovel=25
hivel=26
volume=10


<region>
sample=kd14bop_opn_013.wav
lokey=12
hikey=12
pitch_keycenter=12
lovel=27
hivel=29
volume=9


<region>
sample=kd14bop_opn_014.wav
lokey=12
hikey=12
pitch_keycenter=12
lovel=30
hivel=31
volume=9


<region>
sample=kd14bop_opn_015.wav
lokey=12
hikey=12
pitch_keycenter=12
lovel=32
hivel=33
volume=9


<region>
sample=kd14bop_opn_016.wav
lokey=12
hikey=12
pitch_keycenter=12
lovel=34
hivel=35
volume=9


<region>
sample=kd14bop_opn_017.wav
lokey=12
hikey=12
pitch_keycenter=12
lovel=36
hivel=38
volume=9


<region>
sample=kd14bop_opn_018.wav
lokey=12
hikey=12
pitch_keycenter=12
lovel=39
hivel=40
volume=8


<region>
sample=kd14bop_opn_019.wav
lokey=12
hikey=12
pitch_keycenter=12
lovel=41
hivel=42
volume=8


<region>
sample=kd14bop_opn_020.wav
lokey=12
hikey=12
pitch_keycenter=12
lovel=43
hivel=45
volume=8


<region>
sample=kd14bop_opn_021.wav
lokey=12
hikey=12
pitch_keycenter=12
lovel=46
hivel=47
volume=8


<region>
sample=kd14bop_opn_022.wav
lokey=12
hikey=12
pitch_keycenter=12
lovel=48
hivel=49
volume=7


<region>
sample=kd14bop_opn_023.wav
lokey=12
hikey=12
pitch_keycenter=12
lovel=50
hivel=52
volume=7


<region>
sample=kd14bop_opn_024.wav
lokey=12
hikey=12
pitch_keycenter=12
lovel=53
hivel=54
volume=7


<region>
sample=kd14bop_opn_025.wav
lokey=12
hikey=12
pitch_keycenter=12
lovel=55
hivel=56
volume=7


<region>
sample=kd14bop_opn_026.wav
lokey=12
hikey=12
pitch_keycenter=12
lovel=57
hivel=59
volume=7


<region>
sample=kd14bop_opn_027.wav
lokey=12
hikey=12
pitch_keycenter=12
lovel=60
hivel=61
volume=6


<region>
sample=kd14bop_opn_028.wav
lokey=12
hikey=12
pitch_keycenter=12
lovel=62
hivel=63
volume=6


<region>
sample=kd14bop_opn_029.wav
lokey=12
hikey=12
pitch_keycenter=12
lovel=64
hivel=65
volume=6


<region>
sample=kd14bop_opn_030.wav
lokey=12
hikey=12
pitch_keycenter=12
lovel=66
hivel=68
volume=6


<region>
sample=kd14bop_opn_031.wav
lokey=12
hikey=12
pitch_keycenter=12
lovel=69
hivel=70
volume=5


<region>
sample=kd14bop_opn_032.wav
lokey=12
hikey=12
pitch_keycenter=12
lovel=71
hivel=72
volume=5


<region>
sample=kd14bop_opn_033.wav
lokey=12
hikey=12
pitch_keycenter=12
lovel=73
hivel=75
volume=5


<region>
sample=kd14bop_opn_034.wav
lokey=12
hikey=12
pitch_keycenter=12
lovel=76
hivel=77
volume=5


<region>
sample=kd14bop_opn_035.wav
lokey=12
hikey=12
pitch_keycenter=12
lovel=78
hivel=79
volume=5


<region>
sample=kd14bop_opn_036.wav
lokey=12
hikey=12
pitch_keycenter=12
lovel=80
hivel=82
volume=4


<region>
sample=kd14bop_opn_037.wav
lokey=12
hikey=12
pitch_keycenter=12
lovel=83
hivel=84
volume=4


<region>
sample=kd14bop_opn_038.wav
lokey=12
hikey=12
pitch_keycenter=12
lovel=85
hivel=86
volume=4


<region>
sample=kd14bop_opn_039.wav
lokey=12
hikey=12
pitch_keycenter=12
lovel=87
hivel=89
volume=4


<region>
sample=kd14bop_opn_040.wav
lokey=12
hikey=12
pitch_keycenter=12
lovel=90
hivel=91
volume=3


<region>
sample=kd14bop_opn_041.wav
lokey=12
hikey=12
pitch_keycenter=12
lovel=92
hivel=93
volume=3


<region>
sample=kd14bop_opn_042.wav
lokey=12
hikey=12
pitch_keycenter=12
lovel=94
hivel=95
volume=3


<region>
sample=kd14bop_opn_043.wav
lokey=12
hikey=12
pitch_keycenter=12
lovel=96
hivel=98
volume=3


<region>
sample=kd14bop_opn_044.wav
lokey=12
hikey=12
pitch_keycenter=12
lovel=99
hivel=100
volume=3


<region>
sample=kd14bop_opn_045.wav
lokey=12
hikey=12
pitch_keycenter=12
lovel=101
hivel=102
volume=2


<region>
sample=kd14bop_opn_046.wav
lokey=12
hikey=12
pitch_keycenter=12
lovel=103
hivel=105
volume=2


<region>
sample=kd14bop_opn_055.wav
lokey=12
hikey=12
pitch_keycenter=12
lovel=106
hivel=107
volume=2


<region>
sample=kd14bop_opn_047.wav
lokey=12
hikey=12
pitch_keycenter=12
lovel=108
hivel=109
volume=2


<region>
sample=kd14bop_opn_048x.wav
lokey=12
hikey=12
pitch_keycenter=12
lovel=110
hivel=112
volume=2


<region>
sample=kd14bop_opn_049.wav
lokey=12
hikey=12
pitch_keycenter=12
lovel=113
hivel=114
volume=1


<region>
sample=kd14bop_opn_050.wav
lokey=12
hikey=12
pitch_keycenter=12
lovel=115
hivel=116
volume=1


<region>
sample=kd14bop_opn_051.wav
lokey=12
hikey=12
pitch_keycenter=12
lovel=117
hivel=119
volume=1


<region>
sample=kd14bop_opn_052.wav
lokey=12
hikey=12
pitch_keycenter=12
lovel=120
hivel=121
volume=1


<region>
sample=kd14bop_opn_053.wav
lokey=12
hikey=12
pitch_keycenter=12
lovel=122
hivel=123
volume=0


<region>
sample=kd14bop_opn_054.wav
lokey=12
hikey=12
pitch_keycenter=12
lovel=124
hivel=127
volume=0


